<svg width="138" height="46" viewBox="0 0 138 46" fill="none" xmlns="http://www.w3.org/2000/svg">
<g clip-path="url(#clip0)">
<path d="M127.011 0.0001495H10.9957C10.5728 0.0001495 10.155 0.0001495 9.73319 0.0024495C9.38013 0.0047495 9.02988 0.011431 8.67343 0.0170545C7.89905 0.0261416 7.1265 0.0940772 6.36248 0.220271C5.59953 0.349212 4.86048 0.592303 4.17033 0.941321C3.48102 1.29329 2.85118 1.75064 2.30365 2.29678C1.75326 2.84138 1.29446 3.47087 0.944898 4.16103C0.594374 4.84982 0.35132 5.58793 0.22413 6.34985C0.0957306 7.11081 0.0266377 7.88055 0.0174714 8.65215C0.00676945 9.00474 0.00563929 9.3585 0 9.71114V36.2925C0.00563929 36.6496 0.00676945 36.9955 0.0174714 37.3527C0.0266405 38.1243 0.0957334 38.894 0.22413 39.6549C0.350969 40.4173 0.594037 41.1558 0.944898 41.8449C1.2943 42.5328 1.75316 43.1597 2.30365 43.7013C2.8491 44.2499 3.47935 44.7075 4.17033 45.0568C4.86047 45.4068 5.59944 45.6513 6.36248 45.7822C7.12663 45.9074 7.8991 45.9754 8.67343 45.9855C9.02988 45.9934 9.38013 45.9978 9.73319 45.9978C10.1549 46.0001 10.5728 46.0001 10.9957 46.0001H127.011C127.425 46.0001 127.846 46.0001 128.261 45.9978C128.612 45.9978 128.972 45.9934 129.324 45.9855C130.097 45.9759 130.868 45.9079 131.63 45.7822C132.396 45.6504 133.137 45.4059 133.831 45.0568C134.521 44.7073 135.151 44.2497 135.696 43.7013C136.245 43.1576 136.705 42.5311 137.059 41.8449C137.407 41.1553 137.647 40.4168 137.772 39.6549C137.901 38.8939 137.973 38.1244 137.987 37.3527C137.991 36.9955 137.991 36.6496 137.991 36.2925C138 35.8747 138 35.4592 138 35.0347V10.9667C138 10.5456 138 10.1278 137.991 9.71114C137.991 9.3585 137.991 9.00474 137.987 8.65211C137.973 7.88044 137.901 7.11087 137.772 6.34981C137.647 5.58832 137.406 4.85028 137.059 4.16099C136.347 2.77762 135.218 1.65158 133.831 0.941217C133.137 0.593052 132.396 0.350026 131.63 0.220167C130.868 0.0934177 130.097 0.0254584 129.324 0.0168935C128.972 0.0112815 128.612 0.0045425 128.261 0.0023C127.846 0 127.425 0 127.011 0V0.0001495Z" fill="#3A3A3A"/>
<path d="M28.5642 23.3462C28.5766 22.3863 28.8323 21.4452 29.3074 20.6103C29.7826 19.7755 30.4618 19.074 31.2818 18.5713C30.7609 17.8294 30.0736 17.2188 29.2746 16.788C28.4757 16.3573 27.587 16.1183 26.6791 16.09C24.7426 15.8873 22.8652 17.2455 21.8784 17.2455C20.8724 17.2455 19.353 16.1101 17.7169 16.1437C16.6586 16.1777 15.6273 16.4846 14.7233 17.0344C13.8193 17.5842 13.0735 18.3581 12.5586 19.2807C10.3283 23.1314 11.9919 28.7906 14.1284 31.9032C15.1973 33.4273 16.4466 35.1299 18.0812 35.0695C19.6808 35.0033 20.2783 34.0523 22.2091 34.0523C24.122 34.0523 24.6825 35.0695 26.3504 35.0311C28.0668 35.0033 29.1482 33.5002 30.1797 31.9616C30.9477 30.8756 31.5387 29.6753 31.9307 28.4052C30.9335 27.9846 30.0825 27.2806 29.4839 26.381C28.8852 25.4813 28.5654 24.4259 28.5642 23.3462V23.3462Z" fill="white"/>
<path d="M25.4139 14.0425C26.3498 12.9222 26.8109 11.4822 26.6992 10.0283C25.2694 10.1781 23.9487 10.8595 23.0002 11.9369C22.5364 12.4632 22.1812 13.0755 21.9549 13.7388C21.7286 14.4021 21.6356 15.1033 21.6812 15.8025C22.3964 15.8098 23.1039 15.6552 23.7505 15.3504C24.397 15.0455 24.9658 14.5984 25.4139 14.0425Z" fill="white"/>
<path d="M48.7842 31.2107H43.3255L42.0146 35.0706H39.7025L44.8729 20.7899H47.2751L52.4455 35.0706H50.0939L48.7842 31.2107ZM43.8908 29.4295H48.2178L46.0847 23.1651H46.025L43.8908 29.4295Z" fill="white"/>
<path d="M63.6117 29.8653C63.6117 33.1008 61.8751 35.1795 59.2545 35.1795C58.5906 35.2141 57.9304 35.0616 57.3494 34.7395C56.7684 34.4173 56.2901 33.9385 55.9693 33.3579H55.9198V38.5149H53.7766V24.6588H55.8511V26.3905H55.8905C56.226 25.8127 56.7124 25.3364 57.2978 25.0123C57.8832 24.6881 58.5458 24.5283 59.215 24.5499C61.8649 24.5499 63.6117 26.6387 63.6117 29.8653ZM61.4089 29.8653C61.4089 27.7573 60.3165 26.3714 58.6497 26.3714C57.0122 26.3714 55.9108 27.7865 55.9108 29.8653C55.9108 31.9631 57.0122 33.368 58.6497 33.368C60.3165 33.368 61.4089 31.9923 61.4089 29.8653Z" fill="white"/>
<path d="M75.1035 29.8653C75.1035 33.1008 73.3669 35.1795 70.7462 35.1795C70.0823 35.2141 69.4221 35.0616 68.8411 34.7395C68.2601 34.4173 67.7819 33.9385 67.4611 33.3579H67.4115V38.5149H65.2683V24.6588H67.3428V26.3905H67.3822C67.7177 25.8127 68.2041 25.3364 68.7895 25.0123C69.3749 24.6881 70.0375 24.5283 70.7067 24.5499C73.3567 24.5499 75.1035 26.6387 75.1035 29.8653ZM72.9006 29.8653C72.9006 27.7573 71.8082 26.3714 70.1414 26.3714C68.5039 26.3714 67.4025 27.7865 67.4025 29.8653C67.4025 31.9631 68.5039 33.368 70.1414 33.368C71.8082 33.368 72.9006 31.9923 72.9006 29.8653Z" fill="white"/>
<path d="M82.6986 31.0916C82.8574 32.5078 84.237 33.4376 86.1222 33.4376C87.9286 33.4376 89.2283 32.5077 89.2283 31.2308C89.2283 30.1224 88.4444 29.4587 86.5885 29.0038L84.7325 28.558C82.1028 27.9246 80.882 26.6982 80.882 24.7082C80.882 22.2442 83.0353 20.5518 86.0929 20.5518C89.119 20.5518 91.1935 22.2442 91.2633 24.7082H89.0999C88.9703 23.283 87.789 22.4228 86.0625 22.4228C84.336 22.4228 83.1546 23.2931 83.1546 24.5599C83.1546 25.5695 83.9092 26.1636 85.755 26.6184L87.3328 27.0048C90.2711 27.6977 91.4919 28.8747 91.4919 30.9635C91.4919 33.6352 89.3577 35.3086 85.9634 35.3086C82.7875 35.3086 80.6432 33.6745 80.5047 31.0915L82.6986 31.0916Z" fill="white"/>
<path d="M96.1172 22.1948V24.6588H98.1027V26.3512H96.1172V32.0911C96.1172 32.9828 96.5148 33.3983 97.3876 33.3983C97.6233 33.3943 97.8586 33.3777 98.0926 33.3489V35.0312C97.7002 35.1043 97.3013 35.1375 96.9022 35.1301C94.7883 35.1301 93.9639 34.3383 93.9639 32.3191V26.3512H92.4458V24.6588H93.9639V22.1948H96.1172Z" fill="white"/>
<path d="M99.2526 29.8653C99.2526 26.5893 101.187 24.5308 104.205 24.5308C107.232 24.5308 109.158 26.5893 109.158 29.8653C109.158 33.1502 107.242 35.1997 104.205 35.1997C101.168 35.1997 99.2526 33.1502 99.2526 29.8653ZM106.974 29.8653C106.974 27.618 105.941 26.2917 104.204 26.2917C102.468 26.2917 101.436 27.6281 101.436 29.8653C101.436 32.1214 102.468 33.4377 104.204 33.4377C105.941 33.4377 106.974 32.1214 106.974 29.8653Z" fill="white"/>
<path d="M110.924 24.6588H112.969V26.4309H113.018C113.156 25.8775 113.482 25.3883 113.939 25.0458C114.396 24.7032 114.958 24.5281 115.53 24.5498C115.777 24.549 116.023 24.5757 116.264 24.6296V26.6286C115.952 26.5336 115.627 26.49 115.301 26.4995C114.99 26.4869 114.679 26.5416 114.391 26.6599C114.103 26.7782 113.844 26.9573 113.632 27.1849C113.42 27.4125 113.259 27.6832 113.162 27.9783C113.065 28.2735 113.032 28.5862 113.068 28.8949V35.0706H110.924L110.924 24.6588Z" fill="white"/>
<path d="M126.145 32.0125C125.857 33.9026 124.011 35.1997 121.649 35.1997C118.612 35.1997 116.727 33.1704 116.727 29.9147C116.727 26.6488 118.622 24.5308 121.559 24.5308C124.448 24.5308 126.264 26.5096 126.264 29.6665V30.3987H118.89V30.5278C118.856 30.911 118.904 31.297 119.031 31.6602C119.158 32.0235 119.361 32.3556 119.627 32.6345C119.893 32.9134 120.215 33.1328 120.572 33.2781C120.929 33.4233 121.313 33.4911 121.699 33.477C122.205 33.5243 122.714 33.4073 123.148 33.1434C123.582 32.8796 123.92 32.4829 124.11 32.0125L126.145 32.0125ZM118.9 28.905H124.12C124.139 28.5605 124.087 28.2157 123.966 27.8923C123.846 27.5689 123.659 27.2739 123.419 27.0258C123.178 26.7777 122.889 26.5818 122.569 26.4504C122.249 26.3191 121.905 26.2551 121.559 26.2625C121.21 26.2604 120.864 26.3273 120.541 26.4593C120.218 26.5912 119.925 26.7856 119.678 27.0313C119.43 27.277 119.234 27.5691 119.101 27.8907C118.968 28.2123 118.899 28.557 118.9 28.905Z" fill="white"/>
<path d="M43.6222 10.0407C44.0716 10.0086 44.5224 10.0763 44.9423 10.2389C45.3622 10.4016 45.7407 10.6551 46.0504 10.9813C46.3602 11.3075 46.5935 11.6981 46.7335 12.1251C46.8735 12.552 46.9167 13.0047 46.8601 13.4503C46.8601 15.6425 45.6719 16.9026 43.6222 16.9026H41.1367V10.0407H43.6222ZM42.2055 15.9322H43.5029C43.8239 15.9513 44.1452 15.8988 44.4434 15.7785C44.7415 15.6582 45.009 15.4731 45.2264 15.2367C45.4438 15.0003 45.6056 14.7186 45.7 14.412C45.7944 14.1053 45.819 13.7816 45.7721 13.4643C45.8156 13.1482 45.7885 12.8265 45.6926 12.5221C45.5968 12.2178 45.4346 11.9383 45.2177 11.7038C45.0008 11.4693 44.7346 11.2855 44.4381 11.1656C44.1417 11.0457 43.8223 10.9928 43.5029 11.0104H42.2055V15.9322Z" fill="white"/>
<path d="M48.0673 14.3111C48.0347 13.9708 48.0737 13.6274 48.182 13.303C48.2902 12.9787 48.4652 12.6804 48.6958 12.4274C48.9263 12.1745 49.2074 11.9723 49.5209 11.834C49.8344 11.6957 50.1734 11.6242 50.5163 11.6242C50.8591 11.6242 51.1981 11.6957 51.5116 11.834C51.8251 11.9723 52.1062 12.1745 52.3368 12.4274C52.5673 12.6804 52.7424 12.9787 52.8506 13.303C52.9588 13.6274 52.9978 13.9708 52.9652 14.3111C52.9985 14.6517 52.9599 14.9956 52.8519 15.3205C52.744 15.6454 52.5691 15.9442 52.3385 16.1976C52.1078 16.4511 51.8266 16.6537 51.5127 16.7923C51.1989 16.9309 50.8595 17.0025 50.5163 17.0025C50.173 17.0025 49.8336 16.9309 49.5198 16.7923C49.206 16.6537 48.9247 16.4511 48.6941 16.1976C48.4634 15.9442 48.2885 15.6454 48.1806 15.3205C48.0726 14.9956 48.0341 14.6517 48.0673 14.3111ZM51.9111 14.3111C51.9111 13.1886 51.4054 12.5322 50.518 12.5322C49.6271 12.5322 49.126 13.1886 49.126 14.3111C49.126 15.4426 49.6272 16.0939 50.518 16.0939C51.4054 16.0939 51.9111 15.4381 51.9111 14.3111Z" fill="white"/>
<path d="M59.4757 16.9025H58.4126L57.3394 13.0886H57.2583L56.1895 16.9025H55.1365L53.7051 11.7241H54.7446L55.6748 15.6755H55.7514L56.8191 11.7241H57.8022L58.8699 15.6755H58.9509L59.8767 11.7241H60.9015L59.4757 16.9025Z" fill="white"/>
<path d="M62.1054 11.7241H63.092V12.5468H63.1686C63.2985 12.2513 63.5176 12.0036 63.7954 11.8382C64.0731 11.6729 64.3957 11.598 64.7182 11.6242C64.9709 11.6052 65.2246 11.6432 65.4605 11.7353C65.6965 11.8274 65.9086 11.9713 66.0812 12.1563C66.2539 12.3412 66.3825 12.5626 66.4577 12.8039C66.5329 13.0452 66.5527 13.3002 66.5156 13.5502V16.9024H65.4908V13.8068C65.4908 12.9747 65.1281 12.5608 64.3702 12.5608C64.1987 12.5528 64.0274 12.5819 63.8682 12.6462C63.709 12.7104 63.5656 12.8081 63.4478 12.9328C63.33 13.0574 63.2407 13.206 63.1859 13.3683C63.1311 13.5306 63.1121 13.7028 63.1303 13.8731V16.9025H62.1054L62.1054 11.7241Z" fill="white"/>
<path d="M68.1486 9.70264H69.1735V16.9025H68.1486V9.70264Z" fill="white"/>
<path d="M70.5981 14.3111C70.5655 13.9707 70.6045 13.6274 70.7128 13.303C70.821 12.9786 70.9961 12.6803 71.2267 12.4274C71.4573 12.1744 71.7383 11.9722 72.0519 11.8339C72.3654 11.6956 72.7045 11.6241 73.0473 11.6241C73.3901 11.6241 73.7292 11.6956 74.0427 11.8339C74.3562 11.9722 74.6373 12.1744 74.8679 12.4274C75.0985 12.6803 75.2736 12.9786 75.3818 13.303C75.4901 13.6274 75.5291 13.9707 75.4965 14.3111C75.5297 14.6517 75.4911 14.9956 75.3831 15.3205C75.2752 15.6454 75.1002 15.9442 74.8696 16.1976C74.6389 16.4511 74.3576 16.6537 74.0438 16.7923C73.73 16.9309 73.3905 17.0025 73.0473 17.0025C72.7041 17.0025 72.3646 16.9309 72.0508 16.7923C71.7369 16.6537 71.4557 16.4511 71.225 16.1976C70.9943 15.9442 70.8194 15.6454 70.7114 15.3205C70.6035 14.9956 70.5649 14.6517 70.5981 14.3111ZM74.4418 14.3111C74.4418 13.1886 73.9361 12.5322 73.0487 12.5322C72.1579 12.5322 71.6568 13.1886 71.6568 14.3111C71.6568 15.4426 72.1579 16.0939 73.0487 16.0939C73.9361 16.0939 74.4418 15.4381 74.4418 14.3111Z" fill="white"/>
<path d="M76.5754 15.4381C76.5754 14.5059 77.2714 13.9685 78.5068 13.8922L79.9135 13.8113V13.3644C79.9135 12.8174 79.5508 12.5086 78.8503 12.5086C78.2782 12.5086 77.8818 12.718 77.768 13.0842H76.7759C76.8806 12.1947 77.7196 11.6242 78.8976 11.6242C80.1995 11.6242 80.9338 12.2705 80.9338 13.3644V16.9025H79.9472V16.1748H79.8662C79.7016 16.4358 79.4705 16.6486 79.1964 16.7915C78.9224 16.9343 78.6153 17.0021 78.3064 16.9878C78.0884 17.0104 77.868 16.9872 77.6596 16.9197C77.4511 16.8522 77.2592 16.7419 77.0961 16.5959C76.933 16.4499 76.8024 16.2714 76.7127 16.072C76.623 15.8726 76.5763 15.6566 76.5754 15.4381ZM79.9135 14.9956V14.5626L78.6454 14.6435C77.9302 14.6912 77.6059 14.9338 77.6059 15.3903C77.6059 15.8564 78.0113 16.1276 78.5688 16.1276C78.7322 16.1441 78.8972 16.1276 79.054 16.0792C79.2109 16.0308 79.3563 15.9515 79.4818 15.8458C79.6072 15.7402 79.7101 15.6105 79.7843 15.4644C79.8584 15.3184 79.9024 15.1589 79.9135 14.9956Z" fill="white"/>
<path d="M82.2807 14.3111C82.2807 12.6748 83.1242 11.6382 84.4363 11.6382C84.7608 11.6233 85.0829 11.7008 85.3649 11.8617C85.6469 12.0226 85.8771 12.2602 86.0287 12.5467H86.1053V9.70264H87.1301V16.9025H86.1481V16.0843H86.067C85.9037 16.369 85.6654 16.6036 85.378 16.7629C85.0905 16.9221 84.7649 16.9999 84.4363 16.9878C83.1152 16.9879 82.2807 15.9513 82.2807 14.3111ZM83.3394 14.3111C83.3394 15.4094 83.8586 16.0703 84.7269 16.0703C85.5906 16.0703 86.1245 15.3999 86.1245 14.3156C86.1245 13.2363 85.585 12.5563 84.7269 12.5563C83.8642 12.5563 83.3394 13.2217 83.3394 14.3111Z" fill="white"/>
<path d="M91.3703 14.3111C91.3376 13.9708 91.3767 13.6274 91.4849 13.303C91.5931 12.9787 91.7681 12.6804 91.9987 12.4274C92.2293 12.1745 92.5103 11.9723 92.8238 11.834C93.1373 11.6957 93.4764 11.6242 93.8192 11.6242C94.162 11.6242 94.5011 11.6957 94.8146 11.834C95.1281 11.9723 95.4091 12.1745 95.6397 12.4274C95.8703 12.6804 96.0453 12.9787 96.1535 13.303C96.2617 13.6274 96.3008 13.9708 96.2681 14.3111C96.3014 14.6517 96.2628 14.9956 96.1549 15.3205C96.0469 15.6454 95.872 15.9442 95.6414 16.1976C95.4108 16.4511 95.1295 16.6537 94.8157 16.7923C94.5019 16.9309 94.1624 17.0025 93.8192 17.0025C93.476 17.0025 93.1365 16.9309 92.8227 16.7923C92.5089 16.6537 92.2276 16.4511 91.997 16.1976C91.7664 15.9442 91.5914 15.6454 91.4835 15.3205C91.3756 14.9956 91.337 14.6517 91.3703 14.3111ZM95.214 14.3111C95.214 13.1886 94.7083 12.5322 93.8209 12.5322C92.9301 12.5322 92.4289 13.1886 92.4289 14.3111C92.4289 15.4426 92.9301 16.0939 93.8209 16.0939C94.7083 16.0939 95.214 15.4381 95.214 14.3111Z" fill="white"/>
<path d="M97.6432 11.7241H98.6298V12.5468H98.7063C98.8363 12.2513 99.0554 12.0036 99.3332 11.8382C99.6109 11.6729 99.9335 11.598 100.256 11.6242C100.509 11.6052 100.762 11.6432 100.998 11.7353C101.234 11.8274 101.446 11.9713 101.619 12.1563C101.792 12.3412 101.92 12.5626 101.996 12.8039C102.071 13.0452 102.09 13.3002 102.053 13.5502V16.9024H101.029V13.8068C101.029 12.9747 100.666 12.5608 99.908 12.5608C99.7365 12.5528 99.5652 12.5819 99.406 12.6462C99.2468 12.7104 99.1034 12.8081 98.9856 12.9328C98.8678 13.0574 98.7785 13.206 98.7237 13.3683C98.6688 13.5306 98.6499 13.7028 98.668 13.8731V16.9025H97.6432V11.7241Z" fill="white"/>
<path d="M107.844 10.4349V11.7477H108.969V12.6085H107.844V15.2713C107.844 15.8137 108.068 16.0512 108.579 16.0512C108.709 16.0508 108.84 16.0429 108.969 16.0276V16.8789C108.785 16.9117 108.599 16.9292 108.412 16.9311C107.272 16.9311 106.818 16.5313 106.818 15.5329V12.6085H105.994V11.7477H106.818V10.4349H107.844Z" fill="white"/>
<path d="M110.369 9.70264H111.385V12.5563H111.466C111.602 12.2581 111.828 12.009 112.111 11.843C112.394 11.677 112.722 11.6022 113.05 11.6287C113.301 11.615 113.552 11.6569 113.785 11.7512C114.019 11.8456 114.228 11.9901 114.399 12.1745C114.57 12.3589 114.698 12.5786 114.774 12.8179C114.85 13.0573 114.871 13.3104 114.838 13.5592V16.9025H113.812V13.8113C113.812 12.9842 113.426 12.5653 112.702 12.5653C112.526 12.5509 112.348 12.575 112.183 12.636C112.017 12.697 111.866 12.7934 111.742 12.9185C111.617 13.0435 111.522 13.1942 111.462 13.36C111.401 13.5257 111.379 13.7026 111.394 13.8781V16.9025H110.369L110.369 9.70264Z" fill="white"/>
<path d="M120.814 15.5043C120.674 15.9776 120.373 16.387 119.961 16.6608C119.55 16.9347 119.055 17.0556 118.563 17.0024C118.221 17.0115 117.881 16.9461 117.567 16.8109C117.253 16.6758 116.972 16.4741 116.744 16.2197C116.515 15.9654 116.345 15.6647 116.245 15.3383C116.145 15.0119 116.118 14.6677 116.165 14.3296C116.119 13.9905 116.147 13.6456 116.247 13.3182C116.347 12.9908 116.516 12.6886 116.743 12.4321C116.97 12.1756 117.249 11.9707 117.563 11.8313C117.876 11.6919 118.216 11.6213 118.559 11.6242C120.004 11.6242 120.876 12.6086 120.876 14.2347V14.5913H117.209V14.6486C117.193 14.8386 117.217 15.0299 117.279 15.2101C117.341 15.3904 117.441 15.5557 117.571 15.6953C117.701 15.835 117.859 15.946 118.035 16.0212C118.211 16.0964 118.4 16.1342 118.592 16.1321C118.837 16.1614 119.085 16.1174 119.305 16.0056C119.525 15.8938 119.707 15.7193 119.827 15.5043L120.814 15.5043ZM117.209 13.8355H119.832C119.844 13.6617 119.821 13.4871 119.762 13.323C119.703 13.1588 119.611 13.0088 119.49 12.8825C119.37 12.7561 119.224 12.6563 119.063 12.5894C118.902 12.5225 118.728 12.49 118.553 12.494C118.376 12.4918 118.2 12.525 118.036 12.5916C117.872 12.6582 117.723 12.757 117.597 12.882C117.472 13.007 117.373 13.1558 117.306 13.3195C117.24 13.4833 117.206 13.6587 117.209 13.8355Z" fill="white"/>
</g>
<defs>
<clipPath id="clip0">
<rect width="138" height="46" fill="white"/>
</clipPath>
</defs>
</svg>
