<svg width="28" height="14" viewBox="0 0 28 14" fill="none" xmlns="http://www.w3.org/2000/svg">
<rect width="28" height="14" rx="2" fill="#FEC009"/>
<path d="M4.58413 10.8972H3V3.41131H4.58413V10.8972Z" fill="#212121"/>
<path d="M7.98408 3.41131L9.46583 8.82519L10.9422 3.41131H13.0113V10.8972H11.4217V8.87147L11.5672 5.75064L9.99927 10.8972H8.92163L7.35366 5.75064L7.49914 8.87147V10.8972H5.91501V3.41131H7.98408Z" fill="#212121"/>
<path d="M14.2883 10.8972V3.41131H16.3627C17.2787 3.41131 18.0079 3.68895 18.5503 4.24422C19.0963 4.79949 19.3747 5.56041 19.3855 6.52699V7.74036C19.3855 8.72408 19.1125 9.497 18.5665 10.0591C18.0241 10.6178 17.2751 10.8972 16.3196 10.8972H14.2883ZM15.8724 4.67095V9.64267H16.3466C16.8746 9.64267 17.2464 9.51071 17.4619 9.24679C17.6774 8.97943 17.7906 8.52014 17.8014 7.86889V6.56812C17.8014 5.86889 17.699 5.38218 17.4942 5.10797C17.2895 4.83033 16.9411 4.68466 16.4489 4.67095H15.8724Z" fill="#212121"/>
<path d="M25 8.29563C25 9.19709 24.8491 9.87404 24.5474 10.3265C24.2457 10.7755 23.7715 11 23.1249 11C22.6184 11 22.2125 10.7823 21.9072 10.347L21.8587 10.8972H20.4524V3H21.9772V5.78663C22.2646 5.41645 22.6436 5.23136 23.1141 5.23136C23.7607 5.23136 24.2349 5.45587 24.5366 5.90488C24.8384 6.35047 24.9928 7.00514 25 7.86889V8.29563ZM23.4751 7.93059C23.4751 7.34447 23.4159 6.95201 23.2973 6.75321C23.1788 6.55099 22.9722 6.44987 22.6777 6.44987C22.358 6.44987 22.1245 6.58869 21.9772 6.86632V9.40103C22.1137 9.66153 22.3508 9.79177 22.6885 9.79177C22.9794 9.79177 23.1806 9.70094 23.2919 9.51928C23.4069 9.33762 23.468 8.98458 23.4751 8.46015V7.93059Z" fill="#212121"/>
</svg>
