<svg width="109" height="37" viewBox="0 0 109 37" fill="none" xmlns="http://www.w3.org/2000/svg">
<path fill-rule="evenodd" clip-rule="evenodd" d="M0 17.0498L24.6396 6L26.2297 9.49437L26.2297 9.49439C24.2857 10.3662 23.4216 12.6374 24.2998 14.5673C25.178 16.4972 27.4658 17.355 29.4099 16.4832L29.4099 16.4832L31 19.9776L6.36035 31.0275L4.77027 27.5331C4.7703 27.5331 4.77032 27.533 4.77035 27.533C6.71436 26.6612 7.57839 24.39 6.70021 22.4601C5.82203 20.5302 3.53419 19.6724 1.59017 20.5442C1.59015 20.5442 1.59012 20.5442 1.5901 20.5443L0 17.0498Z" fill="#FFC700"/>
<rect width="1.92885" height="0.959793" transform="matrix(0.912448 -0.409194 0.414175 0.910197 3.23608 17.1763)" fill="#4F514F"/>
<rect width="1.92885" height="0.959793" transform="matrix(0.912448 -0.409194 0.414175 0.910197 5.43628 16.1897)" fill="#4F514F"/>
<rect width="1.92885" height="0.959793" transform="matrix(0.912448 -0.409194 0.414175 0.910197 7.63623 15.2031)" fill="#4F514F"/>
<rect width="1.92885" height="0.959793" transform="matrix(0.912448 -0.409194 0.414175 0.910197 9.83594 14.2166)" fill="#4F514F"/>
<rect width="1.92885" height="0.959793" transform="matrix(0.912448 -0.409194 0.414175 0.910197 12.0361 13.2299)" fill="#4F514F"/>
<rect width="1.92885" height="0.959793" transform="matrix(0.912448 -0.409194 0.414175 0.910197 14.2361 12.2433)" fill="#4F514F"/>
<rect width="1.92885" height="0.959793" transform="matrix(0.912448 -0.409194 0.414175 0.910197 16.436 11.2568)" fill="#4F514F"/>
<rect width="1.92885" height="0.959793" transform="matrix(0.912448 -0.409194 0.414175 0.910197 18.636 10.2702)" fill="#4F514F"/>
<rect width="1.92885" height="0.959793" transform="matrix(0.912448 -0.409194 0.414175 0.910197 20.8359 9.28357)" fill="#4F514F"/>
<path fill-rule="evenodd" clip-rule="evenodd" d="M2.50415 16.4362H29.5412V20.2706C27.4081 20.2707 25.6788 21.9874 25.6788 24.1051C25.6788 26.2227 27.4081 27.9394 29.5412 27.9395V31.7739H2.50415V27.9395C2.50416 27.9395 2.50418 27.9395 2.50419 27.9395C4.63736 27.9395 6.36663 26.2227 6.36663 24.1051C6.36663 21.9874 4.63736 20.2706 2.50419 20.2706C2.50418 20.2706 2.50416 20.2706 2.50415 20.2706V16.4362Z" fill="#4F514F"/>
<rect x="5.40112" y="17.8741" width="1.93122" height="0.958602" fill="#FFC700"/>
<rect x="7.81494" y="17.8741" width="1.93122" height="0.958602" fill="#FFC700"/>
<rect x="10.2288" y="17.8741" width="1.93122" height="0.958602" fill="#FFC700"/>
<rect x="12.6431" y="17.8741" width="1.93122" height="0.958602" fill="#FFC700"/>
<rect x="15.0571" y="17.8741" width="1.93122" height="0.958602" fill="#FFC700"/>
<rect x="17.4709" y="17.8741" width="1.93122" height="0.958602" fill="#FFC700"/>
<rect x="19.885" y="17.8741" width="1.93122" height="0.958602" fill="#FFC700"/>
<rect x="22.2991" y="17.8741" width="1.93122" height="0.958602" fill="#FFC700"/>
<rect x="24.7131" y="17.8741" width="1.93122" height="0.958602" fill="#FFC700"/>
<rect width="0.962216" height="8.65807" rx="0.481108" transform="matrix(0.720023 -0.69395 0.699174 0.714952 12.6433 21.897)" fill="#FFC700"/>
<mask id="path-22-inside-1" fill="white">
<ellipse cx="13.3673" cy="25.7826" rx="1.68982" ry="1.67755"/>
</mask>
<path d="M12.6571 25.7826C12.6571 25.3671 12.9916 25.0601 13.3673 25.0601V29.8601C15.6095 29.8601 17.4571 28.051 17.4571 25.7826H12.6571ZM13.3673 25.0601C13.743 25.0601 14.0775 25.3671 14.0775 25.7826H9.27749C9.27749 28.051 11.1251 29.8601 13.3673 29.8601V25.0601ZM14.0775 25.7826C14.0775 26.198 13.743 26.505 13.3673 26.505V21.705C11.1251 21.705 9.27749 23.5142 9.27749 25.7826H14.0775ZM13.3673 26.505C12.9916 26.505 12.6571 26.198 12.6571 25.7826H17.4571C17.4571 23.5142 15.6095 21.705 13.3673 21.705V26.505Z" fill="#FFC700" mask="url(#path-22-inside-1)"/>
<mask id="path-24-inside-2" fill="white">
<ellipse cx="18.1957" cy="22.9068" rx="1.68982" ry="1.67755"/>
</mask>
<path d="M17.4855 22.9068C17.4855 22.4913 17.82 22.1843 18.1957 22.1843V26.9843C20.4379 26.9843 22.2855 25.1752 22.2855 22.9068H17.4855ZM18.1957 22.1843C18.5714 22.1843 18.9059 22.4913 18.9059 22.9068H14.1059C14.1059 25.1752 15.9534 26.9843 18.1957 26.9843V22.1843ZM18.9059 22.9068C18.9059 23.3222 18.5714 23.6292 18.1957 23.6292V18.8292C15.9534 18.8292 14.1059 20.6384 14.1059 22.9068H18.9059ZM18.1957 23.6292C17.82 23.6292 17.4855 23.3222 17.4855 22.9068H22.2855C22.2855 20.6384 20.4379 18.8292 18.1957 18.8292V23.6292Z" fill="#FFC700" mask="url(#path-24-inside-2)"/>
<path d="M37.3147 15.42H40.0687L42.1387 25.518L44.2807 15.42H46.9627L47.2327 30H45.2527L45.0367 19.866L42.9667 30H41.3647L39.2587 19.83L39.0607 30H37.0627L37.3147 15.42ZM53.3638 30.198C51.8518 30.198 50.7718 29.796 50.1238 28.992C49.4758 28.176 49.1518 26.988 49.1518 25.428V19.956C49.1518 18.408 49.4758 17.238 50.1238 16.446C50.7718 15.654 51.8518 15.258 53.3638 15.258C54.8638 15.258 55.9378 15.654 56.5858 16.446C57.2338 17.238 57.5578 18.408 57.5578 19.956V25.428C57.5578 26.976 57.2278 28.158 56.5678 28.974C55.9198 29.79 54.8518 30.198 53.3638 30.198ZM53.3638 28.236C53.9518 28.236 54.3478 28.05 54.5518 27.678C54.7558 27.306 54.8578 26.766 54.8578 26.058V19.344C54.8578 18.636 54.7558 18.102 54.5518 17.742C54.3598 17.382 53.9638 17.202 53.3638 17.202C52.7638 17.202 52.3618 17.388 52.1578 17.76C51.9538 18.12 51.8518 18.648 51.8518 19.344V26.058C51.8518 26.766 51.9538 27.306 52.1578 27.678C52.3618 28.05 52.7638 28.236 53.3638 28.236ZM58.7741 15.42H61.1141L63.0401 25.734L64.8581 15.42H67.2521L64.3181 30H61.7081L58.7741 15.42Z" fill="#E5E5E5"/>
<path d="M71.1914 12.475H67.9664V9.75H78.0414V12.475H74.8914V30H71.1914V12.475ZM79.9841 9.75H83.6341V30H79.9841V9.75ZM86.7689 9.75H95.2689V12.35H90.4439V18.175H94.2439V20.75H90.4439V27.475H95.3189V30H86.7689V9.75ZM100.262 19.25L96.3123 9.75H99.7623L102.387 16.05L104.687 9.75H107.862L103.987 19.95L108.162 30H104.737L101.862 23.175L99.3623 30H96.1873L100.262 19.25Z" fill="#FFC700"/>
</svg>
