<svg width="167" height="54" viewBox="0 0 167 54" fill="none" xmlns="http://www.w3.org/2000/svg">
<path fill-rule="evenodd" clip-rule="evenodd" d="M0 23.0541L51.0344 6.4373e-06L54.3278 7.29064C50.3013 9.10955 48.5117 13.8482 50.3307 17.8747C52.1496 21.9012 56.8882 23.6908 60.9147 21.8719L64.2082 29.1625L13.1738 52.2166L9.88032 44.926C13.9068 43.107 15.6964 38.3684 13.8775 34.3419C12.0586 30.3154 7.31994 28.5258 3.29344 30.3447L0 23.0541Z" fill="#FFC700"/>
<rect x="6.703" y="23.318" width="4" height="2" transform="rotate(-24.3104 6.703 23.318)" fill="#4F514F"/>
<rect x="11.2596" y="21.2596" width="4" height="2" transform="rotate(-24.3104 11.2596 21.2596)" fill="#4F514F"/>
<rect x="15.8163" y="19.2012" width="4" height="2" transform="rotate(-24.3104 15.8163 19.2012)" fill="#4F514F"/>
<rect x="20.3729" y="17.1428" width="4" height="2" transform="rotate(-24.3104 20.3729 17.1428)" fill="#4F514F"/>
<rect x="24.9296" y="15.0844" width="4" height="2" transform="rotate(-24.3104 24.9296 15.0844)" fill="#4F514F"/>
<rect x="29.4862" y="13.026" width="4" height="2" transform="rotate(-24.3104 29.4862 13.026)" fill="#4F514F"/>
<rect x="34.0428" y="10.9676" width="4" height="2" transform="rotate(-24.3104 34.0428 10.9676)" fill="#4F514F"/>
<rect x="38.5995" y="8.90921" width="4" height="2" transform="rotate(-24.3104 38.5995 8.90921)" fill="#4F514F"/>
<rect x="43.1561" y="6.8508" width="4" height="2" transform="rotate(-24.3104 43.1561 6.8508)" fill="#4F514F"/>
<path fill-rule="evenodd" clip-rule="evenodd" d="M5.18707 21.7739H61.1871V29.7739C56.7688 29.7739 53.1871 33.3556 53.1871 37.7739C53.1871 42.1921 56.7688 45.7739 61.1871 45.7739V53.7739H5.18707V45.7739C9.60535 45.7739 13.1871 42.1921 13.1871 37.7739C13.1871 33.3556 9.60535 29.7739 5.18707 29.7739V21.7739Z" fill="#4F514F"/>
<rect x="11.1871" y="24.7739" width="4" height="2" fill="#FFC700"/>
<rect x="16.1871" y="24.7739" width="4" height="2" fill="#FFC700"/>
<rect x="21.1871" y="24.7739" width="4" height="2" fill="#FFC700"/>
<rect x="26.1871" y="24.7739" width="4" height="2" fill="#FFC700"/>
<rect x="31.1871" y="24.7739" width="4" height="2" fill="#FFC700"/>
<rect x="36.1871" y="24.7739" width="4" height="2" fill="#FFC700"/>
<rect x="41.1871" y="24.7739" width="4" height="2" fill="#FFC700"/>
<rect x="46.1871" y="24.7739" width="4" height="2" fill="#FFC700"/>
<rect x="51.1871" y="24.7739" width="4" height="2" fill="#FFC700"/>
<rect x="26.1871" y="33.167" width="2" height="18" rx="1" transform="rotate(-44.1522 26.1871 33.167)" fill="#FFC700"/>
<circle cx="27.6871" cy="41.2739" r="2.3" stroke="#FFC700" stroke-width="2.4"/>
<circle cx="37.6871" cy="35.2739" r="2.3" stroke="#FFC700" stroke-width="2.4"/>
<path d="M73.7969 40L76.1523 20.5703H80.2188L81.4141 33.1914L85.3633 20.5703H89.3242L87.6016 40H84.7539L85.8672 26.8281L81.918 40H79.5625L78.3203 26.7695L76.6797 40H73.7969ZM96.1094 37.4453C96.4844 37.4453 96.8008 37.3789 97.0586 37.2461C97.3242 37.1055 97.5273 36.9023 97.668 36.6367C97.8164 36.3633 97.9219 36.0859 97.9844 35.8047C98.0547 35.5234 98.1133 35.1797 98.1602 34.7734L99.1094 25.7383C99.1328 25.418 99.1445 25.1172 99.1445 24.8359C99.1367 24.6953 99.1328 24.5586 99.1328 24.4258C99.1172 24.0352 98.9844 23.7227 98.7344 23.4883C98.4844 23.2461 98.1133 23.125 97.6211 23.125C97.2461 23.125 96.9297 23.1914 96.6719 23.3242C96.4141 23.4492 96.2148 23.6445 96.0742 23.9102C95.9336 24.1758 95.8281 24.4453 95.7578 24.7188C95.6953 24.9922 95.6406 25.332 95.5938 25.7383L94.6445 34.7734C94.6133 35.125 94.5977 35.4531 94.5977 35.7578C94.5977 35.8828 94.6016 36 94.6094 36.1094C94.625 36.5 94.7539 36.8203 94.9961 37.0703C95.2461 37.3203 95.6172 37.4453 96.1094 37.4453ZM95.8164 40.2578C94.7695 40.2578 93.8906 40.1172 93.1797 39.8359C92.4688 39.5469 91.9219 39.1211 91.5391 38.5586C91.1562 37.9883 90.9062 37.3203 90.7891 36.5547C90.7266 36.1562 90.6953 35.7227 90.6953 35.2539C90.6953 34.8164 90.7227 34.3477 90.7773 33.8477L91.5391 26.6641C91.7578 24.5625 92.3633 22.9805 93.3555 21.918C94.3477 20.8555 95.8672 20.3242 97.9141 20.3242C98.9609 20.3242 99.8398 20.4648 100.551 20.7461C101.262 21.0273 101.812 21.4453 102.203 22C102.578 22.5625 102.828 23.2266 102.953 23.9922C103.016 24.3906 103.051 24.8242 103.059 25.293C103.059 25.7227 103.031 26.1797 102.977 26.6641L102.215 33.8477C101.996 35.9414 101.383 37.5352 100.375 38.6289C99.375 39.7148 97.8555 40.2578 95.8164 40.2578ZM106.984 40L105.273 20.5703H108.648L109.598 33.9062L113.195 20.5703H116.711L110.887 40H106.984Z" fill="#E5E5E5"/>
<path d="M119.134 40L121.316 19.2871H117.391L117.771 15.7129H130.369L130.003 19.2871H126.165L123.982 40H119.134ZM129.93 40L132.479 15.7129H137.283L134.734 40H129.93ZM138.411 40L140.96 15.7129H151.463L151.111 19.082H145.457L144.769 25.6152H149.178L148.826 29.0137H144.417L143.611 36.6748H149.339L148.987 40H138.411ZM149.925 40L156.121 27.0215L152.649 15.7129H157.22L159.402 22.8027L162.596 15.7129H166.771L160.97 28.0615L164.617 40H160.076L157.703 32.2656L154.07 40H149.925Z" fill="#FFC700"/>
</svg>
