<svg width="24" height="26" viewBox="0 0 24 26" fill="none" xmlns="http://www.w3.org/2000/svg">
<path d="M23.7262 20.8406C22.9496 20.153 22.2696 19.3647 21.7047 18.497C21.088 17.2992 20.7183 15.9912 20.6175 14.6496V10.6983C20.6228 8.5911 19.8532 6.55452 18.4532 4.97117C17.0533 3.38783 15.1193 2.36671 13.0148 2.09966V1.06783C13.0148 0.784622 12.9015 0.513016 12.6999 0.312759C12.4982 0.112503 12.2247 0 11.9396 0C11.6544 0 11.381 0.112503 11.1793 0.312759C10.9777 0.513016 10.8644 0.784622 10.8644 1.06783V2.11566C8.77873 2.40195 6.86816 3.42925 5.4866 5.00728C4.10504 6.5853 3.34609 8.60712 3.35034 10.6983V14.6496C3.24947 15.9912 2.87982 17.2992 2.26309 18.497C1.70809 19.3627 1.03908 20.1509 0.273826 20.8406C0.187918 20.9156 0.119067 21.0079 0.071853 21.1113C0.0246391 21.2147 0.000144802 21.327 0 21.4405V22.5284C0 22.7405 0.0848511 22.9439 0.235887 23.094C0.386923 23.244 0.591772 23.3282 0.805369 23.3282H23.1946C23.4082 23.3282 23.6131 23.244 23.7641 23.094C23.9151 22.9439 24 22.7405 24 22.5284V21.4405C23.9999 21.327 23.9754 21.2147 23.9281 21.1113C23.8809 21.0079 23.8121 20.9156 23.7262 20.8406ZM1.67517 21.7285C2.42449 21.0096 3.08424 20.2039 3.64027 19.3289C4.41714 17.8823 4.87041 16.2862 4.96913 14.6496V10.6983C4.93719 9.76085 5.09551 8.82663 5.43467 7.95125C5.77382 7.07586 6.28688 6.27721 6.94329 5.60286C7.59969 4.9285 8.38602 4.39222 9.25545 4.02597C10.1249 3.65971 11.0596 3.47096 12.004 3.47096C12.9484 3.47096 13.8832 3.65971 14.7526 4.02597C15.622 4.39222 16.4084 4.9285 17.0648 5.60286C17.7212 6.27721 18.2342 7.07586 18.5734 7.95125C18.9125 8.82663 19.0709 9.76085 19.0389 10.6983V14.6496C19.1376 16.2862 19.5909 17.8823 20.3678 19.3289C20.9238 20.2039 21.5836 21.0096 22.3329 21.7285H1.67517Z" fill="#FFC700"/>
<path d="M12.0402 25.9998C12.5476 25.9882 13.0344 25.7987 13.4147 25.465C13.7949 25.1312 14.0441 24.6747 14.1181 24.1761H9.88185C9.95793 24.6882 10.2188 25.1555 10.6158 25.491C11.0128 25.8265 11.519 26.0073 12.0402 25.9998Z" fill="#FFC700"/>
</svg>
