<svg width="435" height="65" viewBox="0 0 435 65" fill="none" xmlns="http://www.w3.org/2000/svg">
<circle cx="31.5" cy="32.5" r="30" stroke="#747474" stroke-width="3"/>
<g clip-path="url(#clip0)">
<path d="M33.6525 11.92V14.755C42.2496 14.755 49.245 21.7504 49.245 30.3475H52.08C52.08 20.1869 43.8131 11.92 33.6525 11.92ZM18.9814 16.181C18.2386 16.181 17.4944 16.4234 16.8891 16.911L16.8197 16.9677L12.3616 21.5661L12.4566 21.4768C10.9824 22.7469 10.5742 24.7541 11.2078 26.4409C12.4028 29.8854 15.4461 36.5462 21.4549 42.5451C27.4736 48.5723 34.2039 51.4867 37.5336 52.7865L37.5676 52.7979L37.6002 52.8092C38.4339 53.0848 39.3247 53.1399 40.1859 52.9689C41.0472 52.798 41.8495 52.407 42.5147 51.834L42.5572 51.7985L46.9855 47.3689C48.162 46.1923 48.162 44.1313 46.9855 42.9562L41.178 37.1416C39.9986 35.9622 37.9376 35.9622 36.7582 37.1416L33.9459 39.9539C32.9395 39.4734 30.4617 38.2274 28.1058 35.9821C25.784 33.7651 24.5975 31.2051 24.168 30.2143L27.003 27.3793C28.2461 26.1361 28.317 23.9999 26.8839 22.8574L27.0129 22.9779L21.1416 16.9677L21.075 16.911C20.481 16.4357 19.7422 16.178 18.9814 16.181ZM33.6525 17.59V20.425C39.1226 20.425 43.575 24.876 43.575 30.3475H46.41C46.41 23.3139 40.6875 17.59 33.6525 17.59ZM18.9842 19.0075C19.0863 19.0075 19.1855 19.0458 19.2833 19.1209L25.0483 25.0234L25.1177 25.0801C25.1007 25.0659 25.1716 25.202 24.9987 25.3749L20.8071 29.5679L21.1303 30.4241C21.1303 30.4241 22.7307 34.7729 26.1497 38.0346C29.512 41.241 33.6582 42.993 33.6582 42.993L34.5413 43.3701L38.7626 39.1474C39.0021 38.9092 38.9341 38.9092 39.1737 39.1474L44.9812 44.9619C45.2221 45.2029 45.2221 45.1235 44.9812 45.3659L40.662 49.6851C40.0043 50.2435 39.3253 50.3895 38.5074 50.1188C35.3025 48.8657 29.03 46.1215 23.4593 40.5422C17.8488 34.9388 14.9401 28.5728 13.8741 25.4883L13.8684 25.4713L13.8599 25.4515C13.6459 24.8845 13.8032 24.0609 14.3065 23.6271L14.3532 23.5846L18.6823 19.1209C18.7676 19.0508 18.8738 19.011 18.9842 19.0075ZM33.6525 23.26V26.095C35.997 26.095 37.905 28.003 37.905 30.3475H40.74C40.74 26.4395 37.5605 23.26 33.6525 23.26Z" fill="#747474"/>
</g>
<path d="M92.25 42.0859V34.3984H85.3359V29.7812H92.25V22.2578H97.4297V29.7812H104.414V34.3984H97.4297V42.0859H92.25ZM118.969 46.6328C119.5 46.6328 119.93 46.5 120.258 46.2344C120.586 45.9688 120.836 45.5312 121.008 44.9219C121.18 44.3125 121.289 43.6484 121.336 42.9297C121.398 42.1953 121.43 41.25 121.43 40.0938C121.43 39.4375 121.422 38.9297 121.406 38.5703C121.406 38.2109 121.391 37.7734 121.359 37.2578C121.328 36.7422 121.281 36.3438 121.219 36.0625C121.156 35.7656 121.062 35.4531 120.938 35.125C120.812 34.7969 120.656 34.5547 120.469 34.3984C120.297 34.2266 120.078 34.0859 119.812 33.9766C119.547 33.8516 119.242 33.7891 118.898 33.7891C118.32 33.7891 117.789 33.9609 117.305 34.3047C116.836 34.6328 116.492 35.0078 116.273 35.4297V41.6641C116.273 44.9766 117.172 46.6328 118.969 46.6328ZM118.852 52.5625C116.992 52.5625 115.367 52.25 113.977 51.625C112.586 50.9844 111.469 50.0859 110.625 48.9297C109.781 47.7578 109.148 46.4141 108.727 44.8984C108.32 43.3672 108.117 41.6562 108.117 39.7656V25.8906C108.117 24.2812 108.211 22.8438 108.398 21.5781C108.586 20.2969 108.922 19.0859 109.406 17.9453C109.891 16.7891 110.531 15.8359 111.328 15.0859C112.125 14.3203 113.148 13.7188 114.398 13.2812C115.664 12.8281 117.141 12.6016 118.828 12.6016C120.656 12.6016 122.211 12.8203 123.492 13.2578C124.773 13.6797 125.797 14.3281 126.562 15.2031C127.328 16.0625 127.883 17.0938 128.227 18.2969C128.586 19.5 128.773 20.9297 128.789 22.5859V23.2656H121.219C121.219 21.5312 121.078 20.3359 120.797 19.6797C120.531 19.0078 119.891 18.6719 118.875 18.6719C117.797 18.6719 117.094 19.1953 116.766 20.2422C116.438 21.2891 116.273 23.3516 116.273 26.4297V29.875C116.664 29.2031 117.281 28.6797 118.125 28.3047C118.984 27.9141 119.961 27.7031 121.055 27.6719C121.133 27.6719 121.211 27.6719 121.289 27.6719C122.695 27.6719 123.922 27.9375 124.969 28.4688C126.078 29.0312 126.953 29.8359 127.594 30.8828C128.234 31.9141 128.703 33.0938 129 34.4219C129.312 35.7344 129.469 37.2031 129.469 38.8281C129.469 40.9531 129.289 42.8203 128.93 44.4297C128.586 46.0234 128.016 47.4531 127.219 48.7188C126.438 49.9688 125.344 50.9219 123.938 51.5781C122.531 52.2344 120.836 52.5625 118.852 52.5625ZM133.898 52V46.3281L143.109 32.0078C143.266 31.7578 143.57 31.2969 144.023 30.625C144.477 29.9531 144.805 29.4453 145.008 29.1016C145.227 28.7578 145.508 28.2734 145.852 27.6484C146.211 27.0078 146.477 26.4609 146.648 26.0078C146.82 25.5547 146.977 25.0391 147.117 24.4609C147.258 23.8672 147.328 23.2969 147.328 22.75C147.328 21.5312 147.062 20.625 146.531 20.0312C146.109 19.5625 145.562 19.3359 144.891 19.3516C144.719 19.3516 144.531 19.3672 144.328 19.3984C143.406 19.5234 142.727 20.0156 142.289 20.875C141.867 21.7344 141.656 23.0234 141.656 24.7422V26.6172H133.875V24.6016C133.875 22.8359 134.078 21.2422 134.484 19.8203C134.891 18.3828 135.516 17.1094 136.359 16C137.203 14.8906 138.328 14.0391 139.734 13.4453C141.156 12.8359 142.812 12.5312 144.703 12.5312C148.156 12.5312 150.781 13.4375 152.578 15.25C154.375 17.0469 155.273 19.5781 155.273 22.8438C155.273 23.3281 155.242 23.8203 155.18 24.3203C155.117 24.8047 155.047 25.25 154.969 25.6562C154.906 26.0469 154.781 26.4922 154.594 26.9922C154.422 27.4922 154.281 27.8984 154.172 28.2109C154.062 28.5078 153.867 28.9219 153.586 29.4531C153.305 29.9688 153.102 30.3438 152.977 30.5781C152.867 30.7969 152.633 31.1875 152.273 31.75C151.914 32.2969 151.68 32.6562 151.57 32.8281C151.461 32.9844 151.195 33.3672 150.773 33.9766C150.367 34.5859 150.117 34.9531 150.023 35.0781L142.922 45.6953H154.195V52H133.898ZM176.719 37.2344H182.484V21.0156L176.719 37.2344ZM182.484 52V43.0703H170.672V37.0469L180.727 13.1406H189.68V37.2344H193.406V43.0703H189.68V52H182.484ZM207.984 46.6328C208.516 46.6328 208.945 46.5 209.273 46.2344C209.602 45.9688 209.852 45.5312 210.023 44.9219C210.195 44.3125 210.305 43.6484 210.352 42.9297C210.414 42.1953 210.445 41.25 210.445 40.0938C210.445 39.4375 210.438 38.9297 210.422 38.5703C210.422 38.2109 210.406 37.7734 210.375 37.2578C210.344 36.7422 210.297 36.3438 210.234 36.0625C210.172 35.7656 210.078 35.4531 209.953 35.125C209.828 34.7969 209.672 34.5547 209.484 34.3984C209.312 34.2266 209.094 34.0859 208.828 33.9766C208.562 33.8516 208.258 33.7891 207.914 33.7891C207.336 33.7891 206.805 33.9609 206.32 34.3047C205.852 34.6328 205.508 35.0078 205.289 35.4297V41.6641C205.289 44.9766 206.188 46.6328 207.984 46.6328ZM207.867 52.5625C206.008 52.5625 204.383 52.25 202.992 51.625C201.602 50.9844 200.484 50.0859 199.641 48.9297C198.797 47.7578 198.164 46.4141 197.742 44.8984C197.336 43.3672 197.133 41.6562 197.133 39.7656V25.8906C197.133 24.2812 197.227 22.8438 197.414 21.5781C197.602 20.2969 197.938 19.0859 198.422 17.9453C198.906 16.7891 199.547 15.8359 200.344 15.0859C201.141 14.3203 202.164 13.7188 203.414 13.2812C204.68 12.8281 206.156 12.6016 207.844 12.6016C209.672 12.6016 211.227 12.8203 212.508 13.2578C213.789 13.6797 214.812 14.3281 215.578 15.2031C216.344 16.0625 216.898 17.0938 217.242 18.2969C217.602 19.5 217.789 20.9297 217.805 22.5859V23.2656H210.234C210.234 21.5312 210.094 20.3359 209.812 19.6797C209.547 19.0078 208.906 18.6719 207.891 18.6719C206.812 18.6719 206.109 19.1953 205.781 20.2422C205.453 21.2891 205.289 23.3516 205.289 26.4297V29.875C205.68 29.2031 206.297 28.6797 207.141 28.3047C208 27.9141 208.977 27.7031 210.07 27.6719C210.148 27.6719 210.227 27.6719 210.305 27.6719C211.711 27.6719 212.938 27.9375 213.984 28.4688C215.094 29.0312 215.969 29.8359 216.609 30.8828C217.25 31.9141 217.719 33.0938 218.016 34.4219C218.328 35.7344 218.484 37.2031 218.484 38.8281C218.484 40.9531 218.305 42.8203 217.945 44.4297C217.602 46.0234 217.031 47.4531 216.234 48.7188C215.453 49.9688 214.359 50.9219 212.953 51.5781C211.547 52.2344 209.852 52.5625 207.867 52.5625ZM230.297 52V21.1328L224.883 23.3828V17.4062C226.102 16.8281 227.461 16.125 228.961 15.2969C230.461 14.4531 231.492 13.7344 232.055 13.1406H238.359V52H230.297ZM271.102 52.7031C269.117 52.7031 267.414 52.4219 265.992 51.8594C264.586 51.2812 263.477 50.4375 262.664 49.3281C261.852 48.2188 261.258 46.9531 260.883 45.5312C260.523 44.0938 260.344 42.4297 260.344 40.5391V39.1562H268.383V40.5156C268.398 42.5 268.602 43.9062 268.992 44.7344C269.383 45.5469 270.117 45.9531 271.195 45.9531C272.242 45.9531 272.938 45.5547 273.281 44.7578C273.625 43.9609 273.797 42.6328 273.797 40.7734C273.797 38.7422 273.508 37.2578 272.93 36.3203C272.367 35.3828 271.297 34.8906 269.719 34.8438H268.312V29.2188H269.578C271.203 29.2031 272.312 28.7656 272.906 27.9062C273.5 27.0312 273.797 25.5938 273.797 23.5938C273.797 22.0156 273.586 20.8516 273.164 20.1016C272.758 19.3516 272.039 18.9766 271.008 18.9766C269.992 18.9766 269.305 19.3828 268.945 20.1953C268.586 20.9922 268.398 22.1797 268.383 23.7578V25.75H260.344V23.4062C260.344 19.9375 261.281 17.2578 263.156 15.3672C265.047 13.4766 267.656 12.5312 270.984 12.5312C274.391 12.5312 277.031 13.4375 278.906 15.25C280.781 17.0469 281.719 19.6562 281.719 23.0781C281.719 25.2812 281.266 27.1562 280.359 28.7031C279.469 30.25 278.328 31.2109 276.938 31.5859C280.125 32.7422 281.719 35.7344 281.719 40.5625C281.719 42.4062 281.523 44.0469 281.133 45.4844C280.758 46.9219 280.156 48.1953 279.328 49.3047C278.516 50.3984 277.414 51.2422 276.023 51.8359C274.633 52.4141 272.992 52.7031 271.102 52.7031ZM285.961 52V46.3281L295.172 32.0078C295.328 31.7578 295.633 31.2969 296.086 30.625C296.539 29.9531 296.867 29.4453 297.07 29.1016C297.289 28.7578 297.57 28.2734 297.914 27.6484C298.273 27.0078 298.539 26.4609 298.711 26.0078C298.883 25.5547 299.039 25.0391 299.18 24.4609C299.32 23.8672 299.391 23.2969 299.391 22.75C299.391 21.5312 299.125 20.625 298.594 20.0312C298.172 19.5625 297.625 19.3359 296.953 19.3516C296.781 19.3516 296.594 19.3672 296.391 19.3984C295.469 19.5234 294.789 20.0156 294.352 20.875C293.93 21.7344 293.719 23.0234 293.719 24.7422V26.6172H285.938V24.6016C285.938 22.8359 286.141 21.2422 286.547 19.8203C286.953 18.3828 287.578 17.1094 288.422 16C289.266 14.8906 290.391 14.0391 291.797 13.4453C293.219 12.8359 294.875 12.5312 296.766 12.5312C300.219 12.5312 302.844 13.4375 304.641 15.25C306.438 17.0469 307.336 19.5781 307.336 22.8438C307.336 23.3281 307.305 23.8203 307.242 24.3203C307.18 24.8047 307.109 25.25 307.031 25.6562C306.969 26.0469 306.844 26.4922 306.656 26.9922C306.484 27.4922 306.344 27.8984 306.234 28.2109C306.125 28.5078 305.93 28.9219 305.648 29.4531C305.367 29.9688 305.164 30.3438 305.039 30.5781C304.93 30.7969 304.695 31.1875 304.336 31.75C303.977 32.2969 303.742 32.6562 303.633 32.8281C303.523 32.9844 303.258 33.3672 302.836 33.9766C302.43 34.5859 302.18 34.9531 302.086 35.0781L294.984 45.6953H306.258V52H285.961ZM321.656 52.7031C318.234 52.7031 315.609 51.6953 313.781 49.6797C311.953 47.6641 311.039 44.9609 311.039 41.5703V23.9453C311.039 20.4141 311.922 17.6328 313.688 15.6016C315.469 13.5703 318.125 12.5547 321.656 12.5547C325.156 12.5547 327.789 13.5781 329.555 15.625C331.336 17.6562 332.227 20.4297 332.227 23.9453V41.5703C332.227 44.9297 331.305 47.625 329.461 49.6562C327.617 51.6875 325.016 52.7031 321.656 52.7031ZM319.266 41.3594C319.266 44.1719 320.062 45.5781 321.656 45.5781C323.25 45.5781 324.047 44.1719 324.047 41.3594V24.1797C324.047 23.8047 324.039 23.5078 324.023 23.2891C324.023 23.0547 324 22.7344 323.953 22.3281C323.922 21.9219 323.852 21.5938 323.742 21.3438C323.633 21.0781 323.492 20.8125 323.32 20.5469C323.164 20.2656 322.938 20.0625 322.641 19.9375C322.359 19.7969 322.031 19.7266 321.656 19.7266C321.359 19.7266 321.086 19.7656 320.836 19.8438C320.602 19.9062 320.398 20.0312 320.227 20.2188C320.07 20.3906 319.93 20.5547 319.805 20.7109C319.695 20.8516 319.602 21.0703 319.523 21.3672C319.461 21.6641 319.406 21.8906 319.359 22.0469C319.328 22.2031 319.305 22.4609 319.289 22.8203C319.273 23.1797 319.266 23.4141 319.266 23.5234C319.266 23.6172 319.266 23.8359 319.266 24.1797V41.3594ZM344.438 52V21.1328L339.023 23.3828V17.4062C340.242 16.8281 341.602 16.125 343.102 15.2969C344.602 14.4531 345.633 13.7344 346.195 13.1406H352.5V52H344.438ZM372.797 52.7031C371.125 52.7031 369.68 52.5078 368.461 52.1172C367.258 51.7266 366.281 51.2031 365.531 50.5469C364.797 49.875 364.203 49.0156 363.75 47.9688C363.312 46.9062 363.016 45.7969 362.859 44.6406C362.703 43.4844 362.625 42.1328 362.625 40.5859H370.383C370.383 42.8984 370.578 44.5156 370.969 45.4375C371.328 46.2969 372.039 46.7266 373.102 46.7266C373.18 46.7266 373.25 46.7266 373.312 46.7266C373.625 46.7109 373.906 46.6641 374.156 46.5859C374.406 46.4922 374.617 46.3359 374.789 46.1172C374.977 45.8828 375.133 45.6641 375.258 45.4609C375.383 45.2578 375.484 44.9453 375.562 44.5234C375.641 44.0859 375.703 43.7109 375.75 43.3984C375.797 43.0703 375.828 42.6016 375.844 41.9922C375.859 41.3672 375.867 40.8516 375.867 40.4453C375.883 40.0234 375.891 39.4219 375.891 38.6406C375.891 37.5938 375.852 36.7109 375.773 35.9922C375.711 35.2734 375.578 34.5859 375.375 33.9297C375.188 33.2734 374.883 32.7812 374.461 32.4531C374.039 32.125 373.516 31.9609 372.891 31.9609C371.234 31.9609 370.219 33.1406 369.844 35.5H362.883L363.562 13.1406H381.773V19.8672H370.055L369.586 27.8359C369.945 27.3984 370.562 27.0156 371.438 26.6875C372.328 26.3438 373.297 26.125 374.344 26.0312C374.703 26 375.047 25.9844 375.375 25.9844C377.828 25.9844 379.742 26.9375 381.117 28.8438C382.68 31.0312 383.461 34.2109 383.461 38.3828C383.461 39.8672 383.406 41.1875 383.297 42.3438C383.188 43.4844 382.992 44.625 382.711 45.7656C382.445 46.8906 382.055 47.8594 381.539 48.6719C381.039 49.4688 380.398 50.1875 379.617 50.8281C378.852 51.4531 377.898 51.9219 376.758 52.2344C375.617 52.5469 374.297 52.7031 372.797 52.7031ZM392.953 37.2344H398.719V21.0156L392.953 37.2344ZM398.719 52V43.0703H386.906V37.0469L396.961 13.1406H405.914V37.2344H409.641V43.0703H405.914V52H398.719ZM416.156 52L424.547 19.2109H414.047V13.1406H432.398V18.6016L423.984 52H416.156Z" fill="#747474"/>
<defs>
<clipPath id="clip0">
<rect width="45.36" height="45.36" fill="white" transform="translate(6.72 11.92)"/>
</clipPath>
</defs>
</svg>
