<svg width="63" height="63" viewBox="0 0 63 63" fill="none" xmlns="http://www.w3.org/2000/svg">
<circle cx="31.5" cy="31.5" r="30" stroke="#747474" stroke-width="3"/>
<g clip-path="url(#clip0)">
<path d="M33.6525 10.92V13.755C42.2496 13.755 49.245 20.7504 49.245 29.3475H52.08C52.08 19.1869 43.8131 10.92 33.6525 10.92ZM18.9814 15.181C18.2386 15.181 17.4944 15.4234 16.8891 15.911L16.8197 15.9677L12.3616 20.5661L12.4566 20.4768C10.9824 21.7469 10.5742 23.7541 11.2078 25.4409C12.4028 28.8854 15.4461 35.5462 21.4549 41.5451C27.4736 47.5723 34.2039 50.4867 37.5336 51.7865L37.5676 51.7979L37.6002 51.8092C38.4339 52.0848 39.3247 52.1399 40.1859 51.9689C41.0472 51.798 41.8495 51.407 42.5147 50.834L42.5572 50.7985L46.9855 46.3689C48.162 45.1923 48.162 43.1313 46.9855 41.9562L41.178 36.1416C39.9986 34.9622 37.9376 34.9622 36.7582 36.1416L33.9459 38.9539C32.9395 38.4734 30.4617 37.2274 28.1058 34.9821C25.784 32.7651 24.5975 30.2051 24.168 29.2143L27.003 26.3793C28.2461 25.1361 28.317 22.9999 26.8839 21.8574L27.0129 21.9779L21.1416 15.9677L21.075 15.911C20.481 15.4357 19.7422 15.178 18.9814 15.181ZM33.6525 16.59V19.425C39.1226 19.425 43.575 23.876 43.575 29.3475H46.41C46.41 22.3139 40.6875 16.59 33.6525 16.59ZM18.9842 18.0075C19.0863 18.0075 19.1855 18.0458 19.2833 18.1209L25.0483 24.0234L25.1177 24.0801C25.1007 24.0659 25.1716 24.202 24.9987 24.3749L20.8071 28.5679L21.1303 29.4241C21.1303 29.4241 22.7307 33.7729 26.1497 37.0346C29.512 40.241 33.6582 41.993 33.6582 41.993L34.5413 42.3701L38.7626 38.1474C39.0021 37.9092 38.9341 37.9092 39.1737 38.1474L44.9812 43.9619C45.2221 44.2029 45.2221 44.1235 44.9812 44.3659L40.662 48.6851C40.0043 49.2435 39.3253 49.3895 38.5074 49.1188C35.3025 47.8657 29.03 45.1215 23.4593 39.5422C17.8488 33.9388 14.9401 27.5728 13.8741 24.4883L13.8684 24.4713L13.8599 24.4515C13.6459 23.8845 13.8032 23.0609 14.3065 22.6271L14.3532 22.5846L18.6823 18.1209C18.7676 18.0508 18.8738 18.011 18.9842 18.0075ZM33.6525 22.26V25.095C35.997 25.095 37.905 27.003 37.905 29.3475H40.74C40.74 25.4395 37.5605 22.26 33.6525 22.26Z" fill="#747474"/>
</g>
<defs>
<clipPath id="clip0">
<rect width="45.36" height="45.36" fill="white" transform="translate(6.72 10.92)"/>
</clipPath>
</defs>
</svg>
