<svg width="723" height="52" viewBox="0 0 723 52" fill="none" xmlns="http://www.w3.org/2000/svg">
<path d="M9.81543 42.4082C8.46712 42.4082 7.29199 42.2474 6.29004 41.9258C5.28809 41.6042 4.48405 41.1465 3.87793 40.5527C3.27181 39.9466 2.79557 39.2168 2.44922 38.3633C2.10286 37.5098 1.90495 36.5573 1.85547 35.5059C1.8431 35.1842 1.83691 34.8503 1.83691 34.5039C1.83691 33.737 1.87402 32.9268 1.94824 32.0732L3.08008 21.2373C3.25326 19.5674 3.55013 18.1201 3.9707 16.8955C4.39128 15.6585 4.98503 14.5762 5.75195 13.6484C6.53125 12.7207 7.5332 12.0218 8.75781 11.5518C9.99479 11.0817 11.4544 10.8467 13.1367 10.8467C14.7324 10.8467 16.0684 11.057 17.1445 11.4775C18.2331 11.8857 19.0618 12.4919 19.6309 13.2959C20.1999 14.0999 20.571 15.0215 20.7441 16.0605C20.8431 16.6296 20.8864 17.2604 20.874 17.9531C20.874 18.5098 20.8431 19.1035 20.7812 19.7344L20.4844 22.4062H14.5283L14.8252 19.5674C14.8623 19.1839 14.887 18.9365 14.8994 18.8252C14.9118 18.7015 14.9242 18.4727 14.9365 18.1387C14.9613 17.8047 14.9674 17.5758 14.9551 17.4521C14.9427 17.3285 14.918 17.1367 14.8809 16.877C14.8561 16.6048 14.8066 16.4193 14.7324 16.3203C14.6582 16.209 14.5654 16.0729 14.4541 15.9121C14.3428 15.7389 14.2067 15.6214 14.0459 15.5596C13.8851 15.4854 13.6872 15.4235 13.4521 15.374C13.2295 15.3122 12.9759 15.2812 12.6914 15.2812C12.2708 15.2812 11.8997 15.3369 11.5781 15.4482C11.2565 15.5472 10.9844 15.708 10.7617 15.9307C10.5391 16.1533 10.3535 16.3883 10.2051 16.6357C10.0566 16.8708 9.93294 17.1862 9.83398 17.582C9.73503 17.9779 9.65462 18.3366 9.59277 18.6582C9.54329 18.9798 9.49382 19.3818 9.44434 19.8643L8.03418 33.4648C7.97233 34.0091 7.94141 34.5039 7.94141 34.9492C7.94141 35.7656 8.04655 36.4089 8.25684 36.8789C8.57845 37.5964 9.26497 37.9551 10.3164 37.9551C10.7246 37.9551 11.0833 37.9056 11.3926 37.8066C11.7018 37.7077 11.9616 37.5407 12.1719 37.3057C12.3822 37.0706 12.5492 36.8418 12.6729 36.6191C12.8089 36.3965 12.9202 36.0811 13.0068 35.6729C13.1058 35.2646 13.1738 34.9245 13.2109 34.6523C13.2604 34.3678 13.3099 33.972 13.3594 33.4648L13.6748 30.5146H19.6309L19.3711 33.0938C19.2227 34.5163 18.9505 35.7656 18.5547 36.8418C18.1712 37.918 17.6146 38.889 16.8848 39.7549C16.1673 40.6208 15.2148 41.2826 14.0273 41.7402C12.8398 42.1855 11.4359 42.4082 9.81543 42.4082ZM20.6699 42L29.9658 11.2363H36.6455L39.4473 42H33.751L33.3057 35.1348H28.3516L26.4775 42H20.6699ZM29.3535 31.2939H33.1016L32.5264 18.9736L29.3535 31.2939ZM42.5088 42L45.7373 11.2363H51.8789L49.0957 37.7881H56.3135L55.8682 42H42.5088ZM58.7627 42L61.9912 11.2363H68.1328L65.3496 37.7881H72.5674L72.1221 42H58.7627ZM92.8848 37.9551C93.4785 37.9551 93.9795 37.8499 94.3877 37.6396C94.8083 37.417 95.1299 37.0954 95.3525 36.6748C95.5876 36.2419 95.7546 35.8027 95.8535 35.3574C95.9648 34.9121 96.0576 34.3678 96.1318 33.7246L97.6348 19.4189C97.6719 18.9118 97.6904 18.4355 97.6904 17.9902C97.6781 17.7676 97.6719 17.5511 97.6719 17.3408C97.6471 16.7223 97.4368 16.2275 97.041 15.8564C96.6452 15.473 96.0576 15.2812 95.2783 15.2812C94.6846 15.2812 94.1836 15.3864 93.7754 15.5967C93.3672 15.7946 93.0518 16.1038 92.8291 16.5244C92.6064 16.945 92.4395 17.3717 92.3281 17.8047C92.2292 18.2376 92.1426 18.7757 92.0684 19.4189L90.5654 33.7246C90.516 34.2812 90.4912 34.8008 90.4912 35.2832C90.4912 35.4811 90.4974 35.6667 90.5098 35.8398C90.5345 36.4583 90.7386 36.9655 91.1221 37.3613C91.5179 37.7572 92.1055 37.9551 92.8848 37.9551ZM92.4209 42.4082C90.7633 42.4082 89.3717 42.1855 88.2461 41.7402C87.1204 41.2826 86.2546 40.6084 85.6484 39.7178C85.0423 38.8148 84.6465 37.7572 84.4609 36.5449C84.362 35.9141 84.3125 35.2275 84.3125 34.4854C84.3125 33.7926 84.3558 33.0505 84.4424 32.2588L85.6484 20.8848C85.9948 17.5573 86.9535 15.0524 88.5244 13.3701C90.0954 11.6878 92.5013 10.8467 95.7422 10.8467C97.3997 10.8467 98.7913 11.0693 99.917 11.5146C101.043 11.96 101.915 12.6217 102.533 13.5C103.127 14.3906 103.523 15.4421 103.721 16.6543C103.82 17.2852 103.875 17.9717 103.888 18.7139C103.888 19.3942 103.844 20.1178 103.758 20.8848L102.552 32.2588C102.205 35.5739 101.234 38.0973 99.6387 39.8291C98.0553 41.5485 95.6494 42.4082 92.4209 42.4082ZM114.223 42.4082C112.503 42.4082 111.081 42.1732 109.955 41.7031C108.829 41.2331 107.994 40.5527 107.45 39.6621C106.918 38.7715 106.572 37.6768 106.411 36.3779C106.337 35.7965 106.3 35.1781 106.3 34.5225C106.3 33.7184 106.355 32.8649 106.467 31.9619L108.638 11.2363H114.649L112.404 32.7227C112.355 33.2174 112.318 33.6504 112.293 34.0215C112.281 34.207 112.281 34.3988 112.293 34.5967C112.293 34.7822 112.293 34.9863 112.293 35.209C112.318 35.6296 112.38 35.9883 112.479 36.2852C112.577 36.582 112.714 36.8604 112.887 37.1201C113.06 37.3675 113.301 37.5531 113.61 37.6768C113.92 37.8005 114.285 37.8623 114.705 37.8623C115.2 37.8623 115.633 37.7633 116.004 37.5654C116.387 37.3675 116.69 37.1201 116.913 36.8232C117.148 36.5264 117.346 36.1367 117.507 35.6543C117.668 35.1719 117.785 34.7142 117.859 34.2812C117.934 33.8483 118.002 33.3288 118.063 32.7227L120.309 11.2363H126.339L124.149 31.9619C124.001 33.335 123.791 34.5472 123.519 35.5986C123.246 36.6377 122.863 37.6025 122.368 38.4932C121.873 39.3714 121.261 40.0889 120.531 40.6455C119.814 41.2021 118.929 41.6351 117.878 41.9443C116.826 42.2536 115.608 42.4082 114.223 42.4082ZM127.452 42L130.681 11.2363H138.344C139.643 11.2363 140.781 11.3167 141.758 11.4775C142.735 11.626 143.626 11.8919 144.43 12.2754C145.234 12.6589 145.877 13.1536 146.359 13.7598C146.854 14.3783 147.201 15.1576 147.398 16.0977C147.522 16.6667 147.578 17.2913 147.565 17.9717C147.565 18.4294 147.541 18.9056 147.491 19.4004C147.293 21.3301 146.817 22.9196 146.062 24.1689C145.308 25.4183 144.207 26.3522 142.76 26.9707L145.729 42H139.624L137.286 28.084H135.06L133.594 42H127.452ZM135.449 24.3359H136.971C138.505 24.3359 139.63 23.9834 140.348 23.2783C141.065 22.5732 141.51 21.4229 141.684 19.8271C141.721 19.4437 141.739 19.085 141.739 18.751C141.752 17.749 141.572 16.9883 141.201 16.4688C140.706 15.776 139.729 15.4235 138.27 15.4111H136.396L135.449 24.3359ZM157.956 42L161.185 11.2363H167.326L166.009 23.8906H171.612L172.93 11.2363H179.071L175.843 42H169.701L171.148 28.2881H165.545L164.098 42H157.956ZM180.407 42L183.636 11.2363H196.939L196.494 15.5039H189.332L188.46 23.7793H194.045L193.6 28.084H188.015L186.994 37.7881H194.249L193.804 42H180.407ZM196.958 42L200.187 11.2363H206.328L203.545 37.7881H210.763L210.317 42H196.958ZM213.212 42L216.44 11.2363H225.922C230.697 11.2363 233.084 13.5928 233.084 18.3057C233.084 18.8499 233.053 19.4313 232.991 20.0498C232.818 21.6208 232.465 22.9691 231.934 24.0947C231.414 25.208 230.728 26.0863 229.874 26.7295C229.033 27.3604 228.093 27.818 227.054 28.1025C226.027 28.387 224.864 28.5293 223.565 28.5293H220.782L219.354 42H213.212ZM221.228 24.2432H223.194C224.617 24.2432 225.6 23.9339 226.145 23.3154C226.701 22.6846 227.06 21.5713 227.221 19.9756C227.283 19.3695 227.313 18.8314 227.313 18.3613C227.313 18.0645 227.301 17.7861 227.276 17.5264C227.215 16.8708 226.936 16.3822 226.441 16.0605C225.947 15.7266 225.167 15.5596 224.104 15.5596H222.137L221.228 24.2432ZM251.026 42.4082C249.678 42.4082 248.503 42.2474 247.501 41.9258C246.499 41.6042 245.695 41.1465 245.089 40.5527C244.483 39.9466 244.007 39.2168 243.66 38.3633C243.314 37.5098 243.116 36.5573 243.066 35.5059C243.054 35.1842 243.048 34.8503 243.048 34.5039C243.048 33.737 243.085 32.9268 243.159 32.0732L244.291 21.2373C244.464 19.5674 244.761 18.1201 245.182 16.8955C245.602 15.6585 246.196 14.5762 246.963 13.6484C247.742 12.7207 248.744 12.0218 249.969 11.5518C251.206 11.0817 252.665 10.8467 254.348 10.8467C255.943 10.8467 257.279 11.057 258.355 11.4775C259.444 11.8857 260.273 12.4919 260.842 13.2959C261.411 14.0999 261.782 15.0215 261.955 16.0605C262.054 16.6296 262.097 17.2604 262.085 17.9531C262.085 18.5098 262.054 19.1035 261.992 19.7344L261.695 22.4062H255.739L256.036 19.5674C256.073 19.1839 256.098 18.9365 256.11 18.8252C256.123 18.7015 256.135 18.4727 256.147 18.1387C256.172 17.8047 256.178 17.5758 256.166 17.4521C256.154 17.3285 256.129 17.1367 256.092 16.877C256.067 16.6048 256.018 16.4193 255.943 16.3203C255.869 16.209 255.776 16.0729 255.665 15.9121C255.554 15.7389 255.418 15.6214 255.257 15.5596C255.096 15.4854 254.898 15.4235 254.663 15.374C254.44 15.3122 254.187 15.2812 253.902 15.2812C253.482 15.2812 253.111 15.3369 252.789 15.4482C252.467 15.5472 252.195 15.708 251.973 15.9307C251.75 16.1533 251.564 16.3883 251.416 16.6357C251.268 16.8708 251.144 17.1862 251.045 17.582C250.946 17.9779 250.866 18.3366 250.804 18.6582C250.754 18.9798 250.705 19.3818 250.655 19.8643L249.245 33.4648C249.183 34.0091 249.152 34.5039 249.152 34.9492C249.152 35.7656 249.257 36.4089 249.468 36.8789C249.789 37.5964 250.476 37.9551 251.527 37.9551C251.936 37.9551 252.294 37.9056 252.604 37.8066C252.913 37.7077 253.173 37.5407 253.383 37.3057C253.593 37.0706 253.76 36.8418 253.884 36.6191C254.02 36.3965 254.131 36.0811 254.218 35.6729C254.317 35.2646 254.385 34.9245 254.422 34.6523C254.471 34.3678 254.521 33.972 254.57 33.4648L254.886 30.5146H260.842L260.582 33.0938C260.434 34.5163 260.161 35.7656 259.766 36.8418C259.382 37.918 258.826 38.889 258.096 39.7549C257.378 40.6208 256.426 41.2826 255.238 41.7402C254.051 42.1855 252.647 42.4082 251.026 42.4082ZM263.421 42L266.649 11.2363H279.953L279.508 15.5039H272.346L271.474 23.7793H277.059L276.613 28.084H271.028L270.008 37.7881H277.263L276.817 42H263.421ZM279.972 42L283.2 11.2363H287.486L292.756 27.4717L294.463 11.2363H299.565L296.337 42H292.255L287.022 24.7627L285.204 42H279.972ZM303.833 42L306.598 15.7637H301.625L302.107 11.2363H318.064L317.601 15.7637H312.739L309.975 42H303.833ZM317.378 42L320.606 11.2363H333.91L333.465 15.5039H326.303L325.431 23.7793H331.016L330.57 28.084H324.985L323.965 37.7881H331.22L330.774 42H317.378ZM333.929 42L337.157 11.2363H344.82C346.119 11.2363 347.257 11.3167 348.234 11.4775C349.212 11.626 350.102 11.8919 350.906 12.2754C351.71 12.6589 352.354 13.1536 352.836 13.7598C353.331 14.3783 353.677 15.1576 353.875 16.0977C353.999 16.6667 354.054 17.2913 354.042 17.9717C354.042 18.4294 354.017 18.9056 353.968 19.4004C353.77 21.3301 353.294 22.9196 352.539 24.1689C351.785 25.4183 350.684 26.3522 349.236 26.9707L352.205 42H346.101L343.763 28.084H341.536L340.07 42H333.929ZM341.926 24.3359H343.447C344.981 24.3359 346.107 23.9834 346.824 23.2783C347.542 22.5732 347.987 21.4229 348.16 19.8271C348.197 19.4437 348.216 19.085 348.216 18.751C348.228 17.749 348.049 16.9883 347.678 16.4688C347.183 15.776 346.206 15.4235 344.746 15.4111H342.872L341.926 24.3359ZM364.562 42L367.791 11.2363H373.877L370.648 42H364.562ZM375.306 42L378.534 11.2363H391.485L391.059 15.4482H384.249L383.358 23.8535H388.98L388.535 28.1582H382.913L381.447 42H375.306ZM404.307 42L405.568 29.9023L401.449 11.2363H407.201L409.465 22.3506L413.807 11.2363H419.447L411.45 29.9023L410.188 42H404.307ZM427.797 37.9551C428.391 37.9551 428.892 37.8499 429.3 37.6396C429.72 37.417 430.042 37.0954 430.265 36.6748C430.5 36.2419 430.667 35.8027 430.766 35.3574C430.877 34.9121 430.97 34.3678 431.044 33.7246L432.547 19.4189C432.584 18.9118 432.603 18.4355 432.603 17.9902C432.59 17.7676 432.584 17.5511 432.584 17.3408C432.559 16.7223 432.349 16.2275 431.953 15.8564C431.557 15.473 430.97 15.2812 430.19 15.2812C429.597 15.2812 429.096 15.3864 428.688 15.5967C428.279 15.7946 427.964 16.1038 427.741 16.5244C427.519 16.945 427.352 17.3717 427.24 17.8047C427.141 18.2376 427.055 18.7757 426.98 19.4189L425.478 33.7246C425.428 34.2812 425.403 34.8008 425.403 35.2832C425.403 35.4811 425.41 35.6667 425.422 35.8398C425.447 36.4583 425.651 36.9655 426.034 37.3613C426.43 37.7572 427.018 37.9551 427.797 37.9551ZM427.333 42.4082C425.675 42.4082 424.284 42.1855 423.158 41.7402C422.033 41.2826 421.167 40.6084 420.561 39.7178C419.954 38.8148 419.559 37.7572 419.373 36.5449C419.274 35.9141 419.225 35.2275 419.225 34.4854C419.225 33.7926 419.268 33.0505 419.354 32.2588L420.561 20.8848C420.907 17.5573 421.866 15.0524 423.437 13.3701C425.007 11.6878 427.413 10.8467 430.654 10.8467C432.312 10.8467 433.703 11.0693 434.829 11.5146C435.955 11.96 436.827 12.6217 437.445 13.5C438.039 14.3906 438.435 15.4421 438.633 16.6543C438.732 17.2852 438.787 17.9717 438.8 18.7139C438.8 19.3942 438.757 20.1178 438.67 20.8848L437.464 32.2588C437.118 35.5739 436.146 38.0973 434.551 39.8291C432.967 41.5485 430.562 42.4082 427.333 42.4082ZM449.135 42.4082C447.415 42.4082 445.993 42.1732 444.867 41.7031C443.742 41.2331 442.907 40.5527 442.362 39.6621C441.83 38.7715 441.484 37.6768 441.323 36.3779C441.249 35.7965 441.212 35.1781 441.212 34.5225C441.212 33.7184 441.268 32.8649 441.379 31.9619L443.55 11.2363H449.562L447.316 32.7227C447.267 33.2174 447.23 33.6504 447.205 34.0215C447.193 34.207 447.193 34.3988 447.205 34.5967C447.205 34.7822 447.205 34.9863 447.205 35.209C447.23 35.6296 447.292 35.9883 447.391 36.2852C447.49 36.582 447.626 36.8604 447.799 37.1201C447.972 37.3675 448.213 37.5531 448.522 37.6768C448.832 37.8005 449.197 37.8623 449.617 37.8623C450.112 37.8623 450.545 37.7633 450.916 37.5654C451.299 37.3675 451.603 37.1201 451.825 36.8232C452.06 36.5264 452.258 36.1367 452.419 35.6543C452.58 35.1719 452.697 34.7142 452.771 34.2812C452.846 33.8483 452.914 33.3288 452.976 32.7227L455.221 11.2363H461.251L459.062 31.9619C458.913 33.335 458.703 34.5472 458.431 35.5986C458.159 36.6377 457.775 37.6025 457.28 38.4932C456.785 39.3714 456.173 40.0889 455.443 40.6455C454.726 41.2021 453.841 41.6351 452.79 41.9443C451.739 42.2536 450.52 42.4082 449.135 42.4082ZM469.693 42L478.989 11.2363H485.669L488.471 42H482.774L482.329 35.1348H477.375L475.501 42H469.693ZM478.377 31.2939H482.125L481.55 18.9736L478.377 31.2939ZM491.532 42L494.761 11.2363H502.424C503.723 11.2363 504.861 11.3167 505.838 11.4775C506.815 11.626 507.706 11.8919 508.51 12.2754C509.314 12.6589 509.957 13.1536 510.439 13.7598C510.934 14.3783 511.281 15.1576 511.479 16.0977C511.602 16.6667 511.658 17.2913 511.646 17.9717C511.646 18.4294 511.621 18.9056 511.571 19.4004C511.373 21.3301 510.897 22.9196 510.143 24.1689C509.388 25.4183 508.287 26.3522 506.84 26.9707L509.809 42H503.704L501.366 28.084H499.14L497.674 42H491.532ZM499.529 24.3359H501.051C502.585 24.3359 503.71 23.9834 504.428 23.2783C505.145 22.5732 505.59 21.4229 505.764 19.8271C505.801 19.4437 505.819 19.085 505.819 18.751C505.832 17.749 505.652 16.9883 505.281 16.4688C504.786 15.776 503.809 15.4235 502.35 15.4111H500.476L499.529 24.3359ZM513.167 42L516.396 11.2363H529.699L529.254 15.5039H522.092L521.22 23.7793H526.805L526.359 28.084H520.774L519.754 37.7881H527.009L526.563 42H513.167ZM538.717 42L541.945 11.2363H548.031L544.803 42H538.717ZM549.46 42L552.688 11.2363H556.975L562.244 27.4717L563.951 11.2363H569.054L565.825 42H561.743L556.511 24.7627L554.692 42H549.46ZM579.259 42L582.487 11.2363H591.969C596.743 11.2363 599.131 13.5928 599.131 18.3057C599.131 18.8499 599.1 19.4313 599.038 20.0498C598.865 21.6208 598.512 22.9691 597.98 24.0947C597.461 25.208 596.774 26.0863 595.921 26.7295C595.08 27.3604 594.14 27.818 593.101 28.1025C592.074 28.387 590.911 28.5293 589.612 28.5293H586.829L585.4 42H579.259ZM587.274 24.2432H589.241C590.664 24.2432 591.647 23.9339 592.191 23.3154C592.748 22.6846 593.107 21.5713 593.268 19.9756C593.329 19.3695 593.36 18.8314 593.36 18.3613C593.36 18.0645 593.348 17.7861 593.323 17.5264C593.261 16.8708 592.983 16.3822 592.488 16.0605C591.993 15.7266 591.214 15.5596 590.15 15.5596H588.184L587.274 24.2432ZM599.743 42L602.972 11.2363H610.635C611.934 11.2363 613.072 11.3167 614.049 11.4775C615.026 11.626 615.917 11.8919 616.721 12.2754C617.525 12.6589 618.168 13.1536 618.65 13.7598C619.145 14.3783 619.492 15.1576 619.689 16.0977C619.813 16.6667 619.869 17.2913 619.856 17.9717C619.856 18.4294 619.832 18.9056 619.782 19.4004C619.584 21.3301 619.108 22.9196 618.354 24.1689C617.599 25.4183 616.498 26.3522 615.051 26.9707L618.02 42H611.915L609.577 28.084H607.351L605.885 42H599.743ZM607.74 24.3359H609.262C610.796 24.3359 611.921 23.9834 612.639 23.2783C613.356 22.5732 613.801 21.4229 613.975 19.8271C614.012 19.4437 614.03 19.085 614.03 18.751C614.043 17.749 613.863 16.9883 613.492 16.4688C612.997 15.776 612.02 15.4235 610.561 15.4111H608.687L607.74 24.3359ZM630.377 37.9551C630.971 37.9551 631.472 37.8499 631.88 37.6396C632.3 37.417 632.622 37.0954 632.845 36.6748C633.08 36.2419 633.247 35.8027 633.346 35.3574C633.457 34.9121 633.55 34.3678 633.624 33.7246L635.127 19.4189C635.164 18.9118 635.183 18.4355 635.183 17.9902C635.17 17.7676 635.164 17.5511 635.164 17.3408C635.139 16.7223 634.929 16.2275 634.533 15.8564C634.137 15.473 633.55 15.2812 632.771 15.2812C632.177 15.2812 631.676 15.3864 631.268 15.5967C630.859 15.7946 630.544 16.1038 630.321 16.5244C630.099 16.945 629.932 17.3717 629.82 17.8047C629.721 18.2376 629.635 18.7757 629.561 19.4189L628.058 33.7246C628.008 34.2812 627.983 34.8008 627.983 35.2832C627.983 35.4811 627.99 35.6667 628.002 35.8398C628.027 36.4583 628.231 36.9655 628.614 37.3613C629.01 37.7572 629.598 37.9551 630.377 37.9551ZM629.913 42.4082C628.256 42.4082 626.864 42.1855 625.738 41.7402C624.613 41.2826 623.747 40.6084 623.141 39.7178C622.535 38.8148 622.139 37.7572 621.953 36.5449C621.854 35.9141 621.805 35.2275 621.805 34.4854C621.805 33.7926 621.848 33.0505 621.935 32.2588L623.141 20.8848C623.487 17.5573 624.446 15.0524 626.017 13.3701C627.588 11.6878 629.993 10.8467 633.234 10.8467C634.892 10.8467 636.284 11.0693 637.409 11.5146C638.535 11.96 639.407 12.6217 640.025 13.5C640.619 14.3906 641.015 15.4421 641.213 16.6543C641.312 17.2852 641.368 17.9717 641.38 18.7139C641.38 19.3942 641.337 20.1178 641.25 20.8848L640.044 32.2588C639.698 35.5739 638.727 38.0973 637.131 39.8291C635.548 41.5485 633.142 42.4082 629.913 42.4082ZM643.124 42L646.353 11.2363H654.108C655.246 11.2363 656.255 11.3044 657.133 11.4404C658.023 11.5765 658.858 11.8239 659.638 12.1826C660.417 12.5413 661.042 13.0176 661.512 13.6113C661.994 14.1927 662.34 14.9535 662.551 15.8936C662.674 16.4502 662.736 17.0563 662.736 17.7119C662.736 18.182 662.705 18.6706 662.644 19.1777C662.211 22.8887 660.485 24.9792 657.467 25.4492C660.621 25.9811 662.198 28.0407 662.198 31.6279C662.198 32.0609 662.174 32.5124 662.124 32.9824C661.827 35.9883 660.831 38.2458 659.137 39.7549C657.454 41.2516 655.16 42 652.253 42H643.124ZM649.729 37.6768H651.492C653.088 37.6768 654.232 37.3057 654.925 36.5635C655.618 35.8089 656.05 34.5905 656.224 32.9082C656.273 32.4753 656.298 32.0671 656.298 31.6836C656.298 30.5085 656.075 29.624 655.63 29.0303C655.049 28.251 653.948 27.8613 652.327 27.8613H650.75L649.729 37.6768ZM651.195 23.668H652.735C654.306 23.668 655.413 23.3278 656.057 22.6475C656.712 21.9548 657.12 20.8291 657.281 19.2705C657.306 19.0107 657.318 18.7633 657.318 18.5283C657.318 17.4645 657.034 16.71 656.465 16.2646C655.772 15.7204 654.609 15.4482 652.977 15.4482H652.067L651.195 23.668ZM664.796 42L668.024 11.2363H674.166L671.383 37.7881H678.601L678.155 42H664.796ZM681.05 42L684.278 11.2363H697.582L697.137 15.5039H689.975L689.103 23.7793H694.688L694.242 28.084H688.657L687.637 37.7881H694.892L694.446 42H681.05ZM697.508 42L701.237 11.2363H707.676L709.568 31.2197L715.821 11.2363H722.093L719.365 42H714.856L716.619 21.1445L710.366 42H706.637L704.67 21.0518L702.072 42H697.508Z" fill="#747474"/>
</svg>
